<?xml version="1.0" standalone="no"?><!DOCTYPE svg PUBLIC "-//W3C//DTD SVG 1.1//EN" "http://www.w3.org/Graphics/SVG/1.1/DTD/svg11.dtd"><svg t="1621841523579" class="icon" viewBox="0 0 1024 1024" version="1.1" xmlns="http://www.w3.org/2000/svg" p-id="14099" xmlns:xlink="http://www.w3.org/1999/xlink" width="200" height="200"><defs><style type="text/css"></style></defs><path d="M873.48 933.77c-16.22 0-29.36-14.33-29.36-32v-754c0-11.05-8.22-20-18.35-20H230.75c-16.22 0-29.36-14.33-29.36-32s13.15-32 29.36-32h598.69c40.54 0 73.4 35.82 73.4 80v758c0.01 17.67-13.14 32-29.36 32z" p-id="14100" fill="#17abe3"></path><path d="M713.71 224.22c8.82 0 16 7.18 16 16v640c0 8.82-7.18 16-16 16h-534c-8.82 0-16-7.18-16-16v-640c0-8.82 7.18-16 16-16h534m0-64h-534c-44.18 0-80 35.82-80 80v640c0 44.18 35.82 80 80 80h534c44.18 0 80-35.82 80-80v-640c0-44.18-35.82-80-80-80z" p-id="14101" fill="#17abe3"></path><path d="M648.9 397.33H242.01c-17.67 0-32 14.33-32 32s14.33 32 32 32H648.9c17.67 0 32-14.33 32-32s-14.32-32-32-32zM564.02 549.69H242.01c-17.67 0-32 14.33-32 32s14.33 32 32 32h322.01c17.67 0 32-14.33 32-32s-14.32-32-32-32z" p-id="14102" fill="#17abe3"></path></svg>